<svg xmlns="http://www.w3.org/2000/svg" xmlns:xlink="http://www.w3.org/1999/xlink" id="Layer_1" x="0" y="0" version="1.1" viewBox="-719 451 100 100" xml:space="preserve" style="enable-background:new -719 451 100 100"><g><path d="M-633.668,536.332c-19.495,19.495-51.216,19.495-70.711,0s-19.495-51.216,0-70.711s51.216-19.495,70.711,0 S-614.173,516.837-633.668,536.332z M-698.653,471.347c-16.338,16.338-16.338,42.921,0,59.26c16.338,16.338,42.921,16.338,59.26,0 c16.338-16.338,16.338-42.921,0-59.26C-655.731,455.009-682.315,455.009-698.653,471.347z"/><path d="M-683.165,479.764l-7.778,7.778l13.435,13.435l-13.435,13.435l7.778,7.778l13.435-13.435l13.435,13.435l7.778-7.778 l-13.435-13.435l13.435-13.435l-7.778-7.778l-13.435,13.435"/></g></svg>